<svg width="1440" height="1024" viewBox="0 0 1440 1024" fill="none" xmlns="http://www.w3.org/2000/svg">
<rect width="1440" height="1024" fill="white"/>
<path d="M47.1841 602.774C20.1054 598.886 0 575.688 0 548.332V0H615.727C625.72 0 635.524 2.72238 644.086 7.87472L729.388 59.2068C738.906 64.9344 746.466 73.4099 751.074 83.5175L794.169 178.047C801.587 194.32 800.63 213.184 791.604 228.622L738.525 319.406C735.202 325.089 730.886 330.13 725.782 334.287L631 411.5L486 514L330.267 621.433C319.448 628.897 306.314 632.239 293.244 630.855L101 610.5L47.1841 602.774Z" fill="#C3A7D8"/>
<path fill-rule="evenodd" clip-rule="evenodd" d="M1440 766.86V1024H1110.81C1108.18 1019.17 1106.29 1013.97 1105.2 1008.57L1091.8 942.234C1088.18 924.274 1093.73 905.687 1106.62 892.663L1179.25 819.257C1183.39 815.075 1188.17 811.584 1193.42 808.917L1309.74 749.762C1319.68 744.707 1330.92 742.793 1341.97 744.274L1410.81 753.496C1421.68 754.952 1431.84 759.62 1440 766.86Z" fill="#C3A7D8"/>
</svg>
